<svg width="98" height="33" viewBox="0 0 98 33" fill="none" xmlns="http://www.w3.org/2000/svg">
<path d="M5.05378 11.8849L8.29718 9.84839L6.48677 6.43622H23.5132L15.0027 22.4906L13.1923 19.0725L9.94897 21.115L15.0027 30.6429L30 2.35715H0L5.05378 11.8849Z" fill="url(#paint0_linear_43_1817)"/>
<path d="M5.05378 11.8849L8.29718 9.84839L6.48677 6.43622H23.5132L15.0027 22.4906L13.1923 19.0725L9.94897 21.115L15.0027 30.6429L30 2.35715H0L5.05378 11.8849Z" fill="url(#paint1_linear_43_1817)"/>
<path d="M41.92 26V8.72H44.812V23.288H52.444V26H41.92ZM60.2009 26.36C58.9049 26.36 57.7729 26.068 56.8049 25.484C55.8369 24.9 55.0849 24.096 54.5489 23.072C54.0209 22.04 53.7569 20.856 53.7569 19.52C53.7569 18.16 54.0289 16.968 54.5729 15.944C55.1169 14.92 55.8729 14.12 56.8409 13.544C57.8089 12.968 58.9289 12.68 60.2009 12.68C61.5049 12.68 62.6409 12.972 63.6089 13.556C64.5769 14.14 65.3289 14.948 65.8649 15.98C66.4009 17.004 66.6689 18.184 66.6689 19.52C66.6689 20.864 66.3969 22.052 65.8529 23.084C65.3169 24.108 64.5649 24.912 63.5969 25.496C62.6289 26.072 61.4969 26.36 60.2009 26.36ZM60.2009 23.648C61.3529 23.648 62.2089 23.264 62.7689 22.496C63.3289 21.728 63.6089 20.736 63.6089 19.52C63.6089 18.264 63.3249 17.264 62.7569 16.52C62.1889 15.768 61.3369 15.392 60.2009 15.392C59.4249 15.392 58.7849 15.568 58.2809 15.92C57.7849 16.264 57.4169 16.748 57.1769 17.372C56.9369 17.988 56.8169 18.704 56.8169 19.52C56.8169 20.776 57.1009 21.78 57.6689 22.532C58.2449 23.276 59.0889 23.648 60.2009 23.648ZM74.7608 32.12C74.0408 32.12 73.3488 32.008 72.6848 31.784C72.0288 31.56 71.4368 31.236 70.9088 30.812C70.3808 30.396 69.9488 29.892 69.6128 29.3L72.2768 27.98C72.5248 28.452 72.8728 28.8 73.3208 29.024C73.7768 29.256 74.2608 29.372 74.7728 29.372C75.3728 29.372 75.9088 29.264 76.3808 29.048C76.8528 28.84 77.2168 28.528 77.4728 28.112C77.7368 27.704 77.8608 27.192 77.8448 26.576V22.892H78.2048V13.04H80.7368V26.624C80.7368 26.952 80.7208 27.264 80.6888 27.56C80.6648 27.864 80.6208 28.16 80.5568 28.448C80.3648 29.288 79.9968 29.976 79.4528 30.512C78.9088 31.056 78.2328 31.46 77.4248 31.724C76.6248 31.988 75.7368 32.12 74.7608 32.12ZM74.5088 26.36C73.3168 26.36 72.2768 26.06 71.3888 25.46C70.5008 24.86 69.8128 24.044 69.3248 23.012C68.8368 21.98 68.5928 20.816 68.5928 19.52C68.5928 18.208 68.8368 17.04 69.3248 16.016C69.8208 14.984 70.5208 14.172 71.4248 13.58C72.3288 12.98 73.3928 12.68 74.6168 12.68C75.8488 12.68 76.8808 12.98 77.7128 13.58C78.5528 14.172 79.1888 14.984 79.6208 16.016C80.0528 17.048 80.2688 18.216 80.2688 19.52C80.2688 20.808 80.0528 21.972 79.6208 23.012C79.1888 24.044 78.5448 24.86 77.6888 25.46C76.8328 26.06 75.7728 26.36 74.5088 26.36ZM74.9528 23.768C75.7288 23.768 76.3528 23.592 76.8248 23.24C77.3048 22.88 77.6528 22.38 77.8688 21.74C78.0928 21.1 78.2048 20.36 78.2048 19.52C78.2048 18.672 78.0928 17.932 77.8688 17.3C77.6528 16.66 77.3128 16.164 76.8488 15.812C76.3848 15.452 75.7848 15.272 75.0488 15.272C74.2728 15.272 73.6328 15.464 73.1288 15.848C72.6248 16.224 72.2528 16.736 72.0128 17.384C71.7728 18.024 71.6528 18.736 71.6528 19.52C71.6528 20.312 71.7688 21.032 72.0008 21.68C72.2408 22.32 72.6048 22.828 73.0928 23.204C73.5808 23.58 74.2008 23.768 74.9528 23.768ZM89.8259 26.36C88.5299 26.36 87.3979 26.068 86.4299 25.484C85.4619 24.9 84.7099 24.096 84.1739 23.072C83.6459 22.04 83.3819 20.856 83.3819 19.52C83.3819 18.16 83.6539 16.968 84.1979 15.944C84.7419 14.92 85.4979 14.12 86.4659 13.544C87.4339 12.968 88.5539 12.68 89.8259 12.68C91.1299 12.68 92.2659 12.972 93.2339 13.556C94.2019 14.14 94.9539 14.948 95.4899 15.98C96.0259 17.004 96.2939 18.184 96.2939 19.52C96.2939 20.864 96.0219 22.052 95.4779 23.084C94.9419 24.108 94.1899 24.912 93.2219 25.496C92.2539 26.072 91.1219 26.36 89.8259 26.36ZM89.8259 23.648C90.9779 23.648 91.8339 23.264 92.3939 22.496C92.9539 21.728 93.2339 20.736 93.2339 19.52C93.2339 18.264 92.9499 17.264 92.3819 16.52C91.8139 15.768 90.9619 15.392 89.8259 15.392C89.0499 15.392 88.4099 15.568 87.9059 15.92C87.4099 16.264 87.0419 16.748 86.8019 17.372C86.5619 17.988 86.4419 18.704 86.4419 19.52C86.4419 20.776 86.7259 21.78 87.2939 22.532C87.8699 23.276 88.7139 23.648 89.8259 23.648Z" fill="url(#paint2_linear_43_1817)"/>
<defs>
<linearGradient id="paint0_linear_43_1817" x1="37.3206" y1="7.04553" x2="-13.5853" y2="10.8162" gradientUnits="userSpaceOnUse">
<stop offset="0.100157" stop-color="#059669"/>
<stop offset="0.707994" stop-color="#00D090"/>
</linearGradient>
<linearGradient id="paint1_linear_43_1817" x1="29.7288" y1="28.7686" x2="-4.77034" y2="28.3139" gradientUnits="userSpaceOnUse">
<stop offset="0.116616" stop-color="#1D4ED8"/>
<stop offset="0.931232" stop-color="#5AD7FE"/>
</linearGradient>
<linearGradient id="paint2_linear_43_1817" x1="69" y1="0" x2="69" y2="33" gradientUnits="userSpaceOnUse">
<stop offset="0.12" stop-color="#1D4ED8"/>
<stop offset="0.93" stop-color="#5AD7FE"/>
</linearGradient>
</defs>
</svg>
